<svg width="60" height="60" viewBox="0 0 60 60" fill="none" xmlns="http://www.w3.org/2000/svg">
<g clip-path="url(#clip0_28_1993)">
<path d="M59.7766 7.88861C59.5588 7.6209 59.2211 7.49603 58.8845 7.53599C58.8076 7.53999 58.7357 7.55297 58.6607 7.57495L0.737526 23.3291C0.31198 23.445 0.0122998 23.8266 0.000312556 24.2671C-0.0106757 24.7077 0.269026 25.1042 0.687579 25.2421L21.882 32.1867L19.986 47.3525C19.936 47.7521 20.1308 48.1427 20.4795 48.3425C20.6343 48.4314 20.8061 48.4753 20.9769 48.4753C21.1917 48.4753 21.4065 48.4064 21.5843 48.2695L29.341 42.3299L36.1408 52.0445C36.3286 52.3132 36.6342 52.4711 36.9589 52.4711C36.9809 52.4711 37.0038 52.4701 37.0268 52.4691C37.3764 52.4451 37.6871 52.2403 37.8469 51.9276L59.8864 8.97346C60.0702 8.62183 60.0263 8.19629 59.7766 7.88861ZM52.839 11.2291L22.837 30.3966L4.47953 24.382L52.839 11.2291ZM22.2646 45.2328L23.6451 34.1916L28.1952 40.6916L22.2646 45.2328ZM36.829 49.5412L24.3923 31.7741L56.4581 11.288L36.829 49.5412Z" fill="#4293FB"/>
<path d="M29.2362 52.014C28.6878 51.9488 28.1876 52.3632 28.1191 52.9396L27.895 54.8243C27.8265 55.4007 28.2156 55.9208 28.764 55.986C29.3124 56.0512 29.8125 55.6368 29.881 55.0604L30.1051 53.1757C30.1736 52.5992 29.7847 52.0792 29.2362 52.014Z" fill="#4293FB"/>
<path d="M13.721 37.7709C13.3692 37.3451 12.7212 37.2997 12.2738 37.6694L10.8106 38.8784C10.3632 39.2482 10.2856 39.893 10.6374 40.3188C10.9892 40.7445 11.6371 40.7899 12.0845 40.4202L13.5477 39.2112C13.9952 38.8415 14.0728 38.1967 13.721 37.7709Z" fill="#4293FB"/>
</g>
<defs>
<clipPath id="clip0_28_1993">
<rect width="60" height="60" fill="white"/>
</clipPath>
</defs>
</svg>
